<?xml version="1.0" encoding="utf-8"?>
<!-- Generator: Adobe Illustrator 27.0.0, SVG Export Plug-In . SVG Version: 6.00 Build 0)  -->
<svg version="1.1" id="Layer_4" xmlns="http://www.w3.org/2000/svg" xmlns:xlink="http://www.w3.org/1999/xlink" x="0px" y="0px"
	 viewBox="0 0 5222 766.8" style="enable-background:new 0 0 5222 766.8;" xml:space="preserve">
<style type="text/css">
	.st0{fill:#C5FF01;}
</style>
<g>
	<g>
		<polygon class="st0" points="4569.4,127.8 4448.3,127.8 4335.1,639 4456.2,639 		"/>
		<polygon class="st0" points="5094.2,127.8 4973.1,127.8 4859.9,639 4981,639 		"/>
		<path class="st0" d="M4690.5,127.8L4859.9,639h-121.1l-169.4-511.2H4690.5z"/>
	</g>
	<polygon class="st0" points="1695.3,517.9 1781.7,127.8 1660.6,127.8 1547.4,639 2193.2,639 2220,517.9 	"/>
	<path class="st0" d="M2357.5,127.8L2244.4,639h450.5c107.9,0,214.7-87.5,238.6-195.4l0,0l-94.3-121.1h121.1l0,0
		c23.8-107.6-44.1-194.8-151.6-194.8L2357.5,127.8L2357.5,127.8z M2722.2,517.9h-330l16.4-74.3h403.6l-0.1,0.6
		C2803.2,484.9,2762.9,517.9,2722.2,517.9z M2839.2,322.6h-403.6l16.3-73.7h330C2822.5,248.9,2848.2,281.9,2839.2,322.6
		L2839.2,322.6z"/>
	<path class="st0" d="M4284,639l43.2-195.4L4233,322.6h121.1l0,0c23.8-107.6-44.1-194.8-151.6-194.8h-451.1L3638.2,639h121.1
		l43.2-195.4h403.6L4162.9,639H4284z M4233,322.6h-403.6l16.3-73.7h330C4216.3,248.9,4242,281.9,4233,322.6L4233,322.6z"/>
	<path class="st0" d="M3054.4,127.8L2941.2,639h645.8l113.2-511.2L3054.4,127.8L3054.4,127.8z M3492.8,517.9h-403.6l59.6-269h403.6
		L3492.8,517.9z"/>
	<polygon class="st0" points="1273.7,127.8 1139.8,127.8 824.8,639 945.8,639 1273.7,127.8 1407.6,127.8 1496.3,639 1375.2,639 	"/>
	<polygon class="st0" points="765.7,127.8 722.5,322.9 318.9,322.9 362.1,127.8 241,127.8 127.8,639 248.9,639 318.9,322.9 
		413.2,444 695.7,444 652.5,639 773.6,639 886.8,127.8 	"/>
</g>
</svg>
