<svg width="36" height="36" viewBox="0 0 36 36" fill="none" xmlns="http://www.w3.org/2000/svg">
<path d="M10.81 29.1773H8.8733C7.84604 29.1773 6.86085 28.7692 6.13446 28.0429C5.40808 27.3165 5 26.3313 5 25.304V7.87416C5 6.84689 5.40808 5.8617 6.13446 5.13532C6.86085 4.40893 7.84604 4.00085 8.8733 4.00085H26.3032C27.3304 4.00085 28.3156 4.40893 29.042 5.13532C29.7684 5.8617 30.1765 6.84689 30.1765 7.87416V9.81081" stroke="#A2B3FF" stroke-width="2" stroke-linecap="round" stroke-linejoin="round"/>
<path d="M29.7597 13.0455C29.6064 12.9091 29.4013 12.8413 29.194 12.8584C27.7046 12.9809 26.3876 12.8499 25.1676 12.4578C23.827 12.0271 22.636 11.2924 21.5269 10.2122C21.3833 10.0724 21.1865 9.99548 20.9833 10.0002C20.7797 10.0045 20.5871 10.0896 20.4502 10.2356C19.5548 11.1894 18.465 11.893 17.2114 12.3264C15.9354 12.7677 14.4459 12.9461 12.7843 12.8567C12.5803 12.8456 12.3807 12.9165 12.2325 13.0524C12.0841 13.1884 12 13.3775 12 13.5753V19.8396C12.0002 19.8455 12.0004 19.8515 12.0004 19.8576C12.0004 22.0548 12.461 24.0607 13.3688 25.8194C14.0982 27.2322 15.1139 28.4845 16.3881 29.5422C18.5505 31.3373 20.7052 31.9472 20.7959 31.9722C20.8625 31.9907 20.9313 32 20.9999 32C21.0685 32 21.1373 31.9907 21.2039 31.9722C21.2946 31.9472 23.4492 31.3373 25.6119 29.5424C26.8861 28.4849 27.902 27.2324 28.6314 25.8196C29.5395 24.0609 30 22.055 30 19.8579V13.5753C30 13.3738 29.9127 13.1818 29.7597 13.0455ZM28.5137 19.8579C28.5137 21.8156 28.1118 23.5939 27.3188 25.1432C26.6859 26.3797 25.8013 27.4795 24.6898 28.4117C23.1333 29.7171 21.5511 30.3338 20.9997 30.5227C20.4468 30.3333 18.8654 29.7167 17.3097 28.4117C16.1982 27.4795 15.3139 26.3797 14.681 25.1432C13.8882 23.5939 13.4863 21.8156 13.4863 19.8576V14.3182C16.5779 14.3414 19.1066 13.4715 21.0184 11.7277C22.1382 12.6939 23.3734 13.3979 24.6992 13.8239C25.8858 14.2053 27.1402 14.3747 28.5135 14.3371L28.5137 19.8579Z" fill="#A2B3FF"/>
</svg>
