<svg width="36" height="36" viewBox="0 0 36 36" fill="none" xmlns="http://www.w3.org/2000/svg">
<path d="M10.81 29.1773H8.8733C7.84604 29.1773 6.86085 28.7692 6.13446 28.0429C5.40808 27.3165 5 26.3313 5 25.304V7.87416C5 6.84689 5.40808 5.8617 6.13446 5.13532C6.86085 4.40893 7.84604 4.00085 8.8733 4.00085H26.3032C27.3304 4.00085 28.3156 4.40893 29.042 5.13532C29.7684 5.8617 30.1765 6.84689 30.1765 7.87416V9.81081" stroke="#A2B3FF" stroke-width="2" stroke-linecap="round" stroke-linejoin="round"/>
<path fill-rule="evenodd" clip-rule="evenodd" d="M28.5 11.25H25.5C24.2593 11.25 23.25 12.2594 23.25 13.5V13.8432C22.5274 13.6156 21.7745 13.5 21 13.5C20.7222 13.5 20.4422 13.5154 20.1676 13.5457C19.7559 13.5912 19.459 13.9619 19.5045 14.3736C19.55 14.7853 19.9212 15.0821 20.3324 15.0367C20.5524 15.0123 20.7771 15 21 15C21.7828 15 22.5375 15.1469 23.25 15.4362V16.5C23.25 17.7406 24.2593 18.75 25.5 18.75H28.5C29.7407 18.75 30.75 17.7406 30.75 16.5V13.5C30.75 12.2594 29.7407 11.25 28.5 11.25ZM29.25 16.5C29.25 16.9136 28.9136 17.25 28.5 17.25H25.5C25.0864 17.25 24.75 16.9136 24.75 16.5V14.9642C24.7501 14.9604 24.75 14.9565 24.75 14.9527V13.5C24.75 13.0864 25.0864 12.75 25.5 12.75H28.5C28.9136 12.75 29.25 13.0864 29.25 13.5V16.5Z" fill="#A2B3FF"/>
<path fill-rule="evenodd" clip-rule="evenodd" d="M13.5 18.75H13.8433C13.6156 19.4726 13.5 20.2255 13.5 21C13.5 21.2778 13.5154 21.5578 13.5457 21.8324C13.5882 22.2161 13.9129 22.5001 14.2903 22.5001C14.3178 22.5001 14.3456 22.4986 14.3736 22.4955C14.7853 22.45 15.0821 22.0793 15.0367 21.6676C15.0123 21.4476 15 21.2229 15 21C15 20.2173 15.1469 19.4625 15.4362 18.75H16.5C17.7407 18.75 18.75 17.7406 18.75 16.5V13.5C18.75 12.2594 17.7407 11.25 16.5 11.25H13.5C12.2593 11.25 11.25 12.2594 11.25 13.5V16.5C11.25 17.7406 12.2593 18.75 13.5 18.75ZM12.75 13.5C12.75 13.0864 13.0864 12.75 13.5 12.75H16.5C16.9136 12.75 17.25 13.0864 17.25 13.5V16.5C17.25 16.9136 16.9136 17.25 16.5 17.25H14.9648C14.9601 17.2499 14.9553 17.25 14.9506 17.25H13.5C13.0864 17.25 12.75 16.9136 12.75 16.5V13.5Z" fill="#A2B3FF"/>
<path fill-rule="evenodd" clip-rule="evenodd" d="M28.5 23.25H28.1567C28.3844 22.5274 28.5 21.7745 28.5 21C28.5 20.7222 28.4846 20.4422 28.4543 20.1676C28.4087 19.7559 28.0379 19.4591 27.6264 19.5045C27.2147 19.55 26.9179 19.9207 26.9633 20.3324C26.9877 20.5524 27 20.777 27 21C27 21.7827 26.8531 22.5375 26.5638 23.25H25.5C24.2593 23.25 23.25 24.2593 23.25 25.5V28.5C23.25 29.7407 24.2593 30.75 25.5 30.75H28.5C29.7407 30.75 30.75 29.7407 30.75 28.5V25.5C30.75 24.2593 29.7407 23.25 28.5 23.25ZM29.25 28.5C29.25 28.9136 28.9136 29.25 28.5 29.25H25.5C25.0864 29.25 24.75 28.9136 24.75 28.5V25.5C24.75 25.0864 25.0864 24.75 25.5 24.75H27.0416C27.0436 24.75 27.0457 24.7502 27.0478 24.7502C27.0495 24.7502 27.0512 24.75 27.0529 24.75H28.5C28.9136 24.75 29.25 25.0864 29.25 25.5V28.5Z" fill="#A2B3FF"/>
<path fill-rule="evenodd" clip-rule="evenodd" d="M21.6676 26.9633C21.4476 26.9877 21.2229 27 21 27C20.2173 27 19.4625 26.8531 18.75 26.5638V25.5C18.75 24.2593 17.7407 23.25 16.5 23.25H13.5C12.2593 23.25 11.25 24.2593 11.25 25.5V28.5C11.25 29.7407 12.2593 30.75 13.5 30.75H16.5C17.7407 30.75 18.75 29.7407 18.75 28.5V28.1567C19.4726 28.3844 20.2255 28.5 21 28.5C21.2778 28.5 21.5578 28.4846 21.8324 28.4543C22.2441 28.4088 22.541 28.0381 22.4955 27.6264C22.45 27.2147 22.0789 26.9177 21.6676 26.9633ZM16.5 29.25H13.5C13.0864 29.25 12.75 28.9136 12.75 28.5V25.5C12.75 25.0864 13.0864 24.75 13.5 24.75H16.5C16.9136 24.75 17.25 25.0864 17.25 25.5V27.0359C17.2499 27.0397 17.25 27.0435 17.25 27.0473V28.5C17.25 28.9136 16.9136 29.25 16.5 29.25Z" fill="#A2B3FF"/>
</svg>
