<svg width="35" height="30" viewBox="0 0 35 30" fill="none" xmlns="http://www.w3.org/2000/svg">
<path d="M34.9997 3.56989C34.9997 3.56759 34.9999 3.56534 34.9999 3.56305C34.9998 3.55631 34.9991 3.5497 34.9989 3.54298C34.9983 3.52411 34.9975 3.50528 34.996 3.48656C34.9952 3.47623 34.9941 3.46597 34.9931 3.4557C34.9913 3.43835 34.9891 3.42109 34.9865 3.4039C34.9849 3.39349 34.9834 3.3831 34.9815 3.37275C34.9784 3.3552 34.9748 3.33782 34.9709 3.32048C34.9688 3.31116 34.9669 3.30178 34.9646 3.29254C34.9589 3.26965 34.9524 3.24699 34.9454 3.22455C34.9442 3.2209 34.9433 3.21717 34.9421 3.21353C34.934 3.18859 34.9249 3.16402 34.9152 3.13973C34.9118 3.13118 34.9079 3.12285 34.9043 3.11439C34.8973 3.098 34.8901 3.0817 34.8824 3.06565C34.8779 3.05635 34.8731 3.04721 34.8684 3.03804C34.8606 3.02298 34.8526 3.00808 34.8442 2.99335C34.8391 2.98442 34.834 2.97555 34.8287 2.96675C34.8195 2.95168 34.81 2.93688 34.8002 2.92221C34.795 2.91444 34.7899 2.90659 34.7846 2.89894C34.7724 2.88167 34.7597 2.86481 34.7466 2.84817C34.7431 2.84363 34.7398 2.83891 34.7361 2.83441C34.7192 2.81345 34.7015 2.79305 34.6831 2.77321C34.6784 2.7682 34.6735 2.7635 34.6687 2.75857C34.6548 2.74407 34.6406 2.72977 34.626 2.71594C34.6186 2.709 34.6109 2.70235 34.6034 2.69558C34.5907 2.68428 34.5779 2.67314 34.5647 2.66233C34.5561 2.65525 34.5473 2.64834 34.5385 2.6415C34.5256 2.63149 34.5124 2.62176 34.499 2.61224C34.4898 2.60571 34.4807 2.5992 34.4713 2.59292C34.467 2.59009 34.4631 2.587 34.4588 2.58422C34.4482 2.57735 34.4374 2.57119 34.4266 2.56468C34.4183 2.55958 34.41 2.55429 34.4015 2.54938C34.3781 2.53594 34.3544 2.52318 34.3303 2.51141L34.3289 2.51069C34.3036 2.49833 34.2778 2.48712 34.2518 2.47663L34.2465 2.4743L28.2416 0.0856995C27.9544 -0.0285665 27.6338 -0.0285665 27.3466 0.0856995L21.3417 2.4743C21.3399 2.47504 21.3381 2.47597 21.3362 2.47673C21.3103 2.48718 21.2847 2.49834 21.2594 2.51062L21.2565 2.51216C21.233 2.52373 21.2097 2.53619 21.1868 2.54935C21.1782 2.55429 21.1699 2.55962 21.1615 2.56476C21.1508 2.57124 21.14 2.57737 21.1294 2.58422C21.1252 2.587 21.1212 2.59009 21.117 2.59292C21.1076 2.5992 21.0984 2.60571 21.0892 2.61224C21.0758 2.62176 21.0627 2.63149 21.0497 2.6415C21.0409 2.64834 21.0321 2.65525 21.0235 2.66233C21.0103 2.67314 20.9975 2.68428 20.9849 2.69558C20.9773 2.70235 20.9697 2.709 20.9623 2.71594C20.9476 2.72977 20.9334 2.74407 20.9195 2.75857C20.9148 2.7635 20.9098 2.7682 20.9052 2.77321C20.8868 2.79305 20.8691 2.81345 20.8521 2.83441C20.8485 2.83891 20.8452 2.84363 20.8416 2.84817C20.8285 2.86481 20.8158 2.88167 20.8037 2.89894C20.7983 2.90659 20.7933 2.91444 20.7881 2.92221C20.7783 2.93688 20.7687 2.95168 20.7596 2.96675C20.7543 2.97555 20.7491 2.98442 20.744 2.99335C20.7356 3.00808 20.7276 3.02298 20.7198 3.03804C20.7151 3.04721 20.7104 3.05635 20.7059 3.06565C20.6981 3.0817 20.691 3.098 20.6839 3.11439C20.6803 3.12285 20.6765 3.13118 20.673 3.13973C20.6633 3.16402 20.6542 3.18859 20.6461 3.21353C20.6449 3.21717 20.644 3.2209 20.6429 3.22455C20.6358 3.24699 20.6293 3.26965 20.6236 3.29254C20.6213 3.30178 20.6195 3.31116 20.6174 3.32048C20.6135 3.33782 20.6098 3.3552 20.6067 3.37275C20.6049 3.3831 20.6033 3.39349 20.6017 3.4039C20.5992 3.42109 20.597 3.43835 20.5952 3.4557C20.5941 3.46597 20.593 3.47623 20.5922 3.48656C20.5908 3.50528 20.5899 3.52411 20.5894 3.54298C20.5892 3.5497 20.5884 3.55631 20.5883 3.56305C20.5883 3.56534 20.5885 3.56759 20.5885 3.56989C20.5885 3.57274 20.5882 3.57556 20.5882 3.57842V10.1133C20.5882 10.564 20.8453 10.976 21.2521 11.1775L26.5931 13.8232V18.3653L24.7059 20.048V19.3008C24.7059 19.2979 24.7056 19.2951 24.7056 19.2923C24.7056 19.29 24.7058 19.2877 24.7058 19.2854C24.7057 19.2787 24.705 19.2721 24.7048 19.2653C24.7042 19.2465 24.7034 19.2277 24.7019 19.2089C24.7011 19.1986 24.7 19.1883 24.699 19.1781C24.6971 19.1607 24.695 19.1435 24.6924 19.1263C24.6908 19.1159 24.6893 19.1055 24.6874 19.0951C24.6843 19.0776 24.6806 19.0602 24.6768 19.0429C24.6747 19.0335 24.6728 19.0242 24.6705 19.0149C24.6648 18.992 24.6583 18.9694 24.6513 18.9469C24.6501 18.9433 24.6492 18.9395 24.648 18.9359C24.6399 18.911 24.6308 18.8864 24.6211 18.8621C24.6177 18.8535 24.6138 18.8452 24.6102 18.8368C24.6032 18.8204 24.596 18.8041 24.5882 18.788C24.5837 18.7787 24.579 18.7696 24.5743 18.7604C24.5665 18.7453 24.5585 18.7305 24.5501 18.7157C24.545 18.7068 24.5399 18.6979 24.5345 18.6891C24.5254 18.6741 24.5158 18.6593 24.5061 18.6446C24.5009 18.6368 24.4958 18.629 24.4905 18.6213C24.4783 18.604 24.4656 18.5872 24.4525 18.5705C24.4489 18.566 24.4456 18.5613 24.442 18.5568C24.4251 18.5358 24.4074 18.5154 24.389 18.4956C24.3843 18.4906 24.3793 18.4859 24.3746 18.4809C24.3607 18.4664 24.3465 18.4521 24.3318 18.4383C24.3245 18.4314 24.3168 18.4247 24.3092 18.418C24.2966 18.4066 24.2838 18.3955 24.2706 18.3847C24.262 18.3776 24.2532 18.3707 24.2444 18.3639C24.2315 18.3539 24.2183 18.3441 24.2049 18.3346C24.1957 18.3281 24.1865 18.3216 24.1772 18.3153C24.1729 18.3125 24.1689 18.3094 24.1647 18.3066C24.1542 18.2997 24.1433 18.2936 24.1326 18.2871C24.1242 18.282 24.1159 18.2767 24.1073 18.2717C24.0842 18.2584 24.0608 18.2459 24.037 18.2342L24.0347 18.233C24.0094 18.2207 23.9837 18.2095 23.9578 18.1991L23.9524 18.1967L17.9475 15.8081C17.6603 15.6938 17.3397 15.6938 17.0525 15.8081L11.0476 18.1967C11.0457 18.1974 11.044 18.1983 11.0421 18.1991C11.0162 18.2095 10.9906 18.2207 10.9653 18.233L10.9626 18.2344C10.939 18.246 10.9157 18.2585 10.8927 18.2717C10.8841 18.2767 10.8758 18.282 10.8674 18.2871C10.8567 18.2936 10.8458 18.2997 10.8353 18.3066C10.8311 18.3094 10.8271 18.3125 10.8228 18.3153C10.8135 18.3216 10.8043 18.3281 10.7951 18.3346C10.7817 18.3441 10.7685 18.3539 10.7556 18.3639C10.7468 18.3707 10.738 18.3776 10.7294 18.3847C10.7162 18.3955 10.7034 18.4066 10.6908 18.418C10.6832 18.4247 10.6755 18.4314 10.6682 18.4383C10.6535 18.4521 10.6393 18.4664 10.6254 18.4809C10.6207 18.4859 10.6157 18.4906 10.611 18.4956C10.5926 18.5154 10.5749 18.5358 10.558 18.5568C10.5544 18.5613 10.5511 18.566 10.5475 18.5705C10.5344 18.5872 10.5217 18.604 10.5096 18.6213C10.5042 18.629 10.4991 18.6368 10.494 18.6446C10.4842 18.6593 10.4746 18.6741 10.4655 18.6891C10.4601 18.6979 10.455 18.7068 10.4499 18.7157C10.4415 18.7305 10.4335 18.7453 10.4257 18.7604C10.421 18.7696 10.4163 18.7787 10.4118 18.788C10.404 18.8041 10.3968 18.8204 10.3898 18.8368C10.3862 18.8452 10.3823 18.8535 10.3789 18.8621C10.3692 18.8864 10.3601 18.911 10.352 18.9359C10.3508 18.9395 10.3499 18.9433 10.3487 18.9469C10.3417 18.9694 10.3352 18.992 10.3295 19.0149C10.3272 19.0242 10.3253 19.0335 10.3232 19.0429C10.3194 19.0602 10.3157 19.0776 10.3126 19.0951C10.3107 19.1055 10.3092 19.1159 10.3076 19.1263C10.3051 19.1435 10.3029 19.1607 10.301 19.1781C10.3 19.1883 10.2989 19.1986 10.2981 19.2089C10.2966 19.2277 10.2958 19.2465 10.2952 19.2653C10.295 19.2721 10.2943 19.2787 10.2942 19.2854C10.2942 19.2877 10.2944 19.29 10.2944 19.2923C10.2944 19.2951 10.2941 19.2979 10.2941 19.3008V20.048L8.40686 18.3653V13.8232L13.7479 11.1775C14.1547 10.976 14.4118 10.564 14.4118 10.1133V3.57842C14.4118 3.57556 14.4115 3.57274 14.4115 3.56989C14.4115 3.56759 14.4117 3.56534 14.4117 3.56305C14.4116 3.55631 14.4108 3.5497 14.4106 3.54298C14.4101 3.52411 14.4092 3.50528 14.4078 3.48656C14.407 3.47623 14.4059 3.46597 14.4048 3.4557C14.403 3.43835 14.4008 3.42109 14.3983 3.4039C14.3967 3.39349 14.3951 3.3831 14.3933 3.37275C14.3902 3.3552 14.3865 3.33782 14.3826 3.32048C14.3806 3.31116 14.3787 3.30178 14.3764 3.29254C14.3707 3.26965 14.3642 3.24699 14.3571 3.22455C14.356 3.2209 14.3551 3.21717 14.3539 3.21353C14.3458 3.18859 14.3367 3.16402 14.327 3.13973C14.3235 3.13118 14.3197 3.12285 14.3161 3.11439C14.3091 3.098 14.3019 3.0817 14.2941 3.06565C14.2896 3.05635 14.2849 3.04721 14.2802 3.03804C14.2724 3.02298 14.2644 3.00808 14.256 2.99335C14.2509 2.98442 14.2457 2.97555 14.2404 2.96675C14.2313 2.95168 14.2217 2.93688 14.2119 2.92221C14.2067 2.91444 14.2017 2.90659 14.1963 2.89894C14.1842 2.88167 14.1715 2.86481 14.1584 2.84817C14.1548 2.84363 14.1515 2.83891 14.1479 2.83441C14.1309 2.81345 14.1132 2.79305 14.0948 2.77321C14.0902 2.7682 14.0852 2.7635 14.0805 2.75857C14.0666 2.74407 14.0524 2.72977 14.0377 2.71594C14.0303 2.709 14.0227 2.70235 14.0151 2.69558C14.0025 2.68428 13.9897 2.67314 13.9765 2.66233C13.9679 2.65525 13.9591 2.64834 13.9503 2.6415C13.9373 2.63149 13.9242 2.62176 13.9108 2.61224C13.9016 2.60571 13.8924 2.5992 13.883 2.59292C13.8788 2.59009 13.8748 2.587 13.8706 2.58422C13.86 2.57736 13.8492 2.57121 13.8385 2.56471C13.83 2.5596 13.8218 2.55429 13.8132 2.54937C13.79 2.53603 13.7665 2.52339 13.7426 2.5117L13.7406 2.51067C13.7153 2.49833 13.6896 2.48714 13.6636 2.47666L13.6583 2.4743L7.65337 0.0856995C7.36619 -0.0285665 7.04557 -0.0285665 6.7584 0.0856995L0.753495 2.4743C0.751618 2.47504 0.749855 2.47597 0.747982 2.47673C0.722096 2.48718 0.696445 2.49834 0.671212 2.51062L0.66828 2.51216C0.644714 2.52373 0.621501 2.53619 0.598597 2.54935C0.589985 2.55429 0.581691 2.55962 0.573239 2.56476C0.562562 2.57124 0.551717 2.57737 0.541212 2.58422C0.536939 2.587 0.532952 2.59009 0.528721 2.59292C0.519339 2.5992 0.510174 2.60571 0.500992 2.61224C0.487605 2.62176 0.474432 2.63149 0.46151 2.6415C0.452667 2.64834 0.4439 2.65525 0.435272 2.66233C0.422094 2.67314 0.409293 2.68428 0.396652 2.69558C0.389087 2.70235 0.381426 2.709 0.37405 2.71594C0.359352 2.72977 0.345211 2.74407 0.331292 2.75857C0.326554 2.7635 0.321574 2.7682 0.316929 2.77321C0.298519 2.79305 0.280826 2.81345 0.263875 2.83441C0.260243 2.83891 0.256934 2.84363 0.253365 2.84817C0.240305 2.86481 0.227563 2.88167 0.215433 2.89894C0.210063 2.90659 0.205024 2.91444 0.199834 2.92221C0.190041 2.93688 0.18047 2.95168 0.171347 2.96675C0.166023 2.97555 0.160879 2.98442 0.155786 2.99335C0.147392 3.00808 0.139353 3.02298 0.131596 3.03804C0.126871 3.04721 0.122134 3.05635 0.117652 3.06565C0.109907 3.0817 0.102715 3.098 0.0957031 3.11439C0.0920841 3.12285 0.0882305 3.13118 0.0848042 3.13973C0.0750738 3.16402 0.0660053 3.18859 0.0578918 3.21353C0.0567065 3.21717 0.0557682 3.2209 0.0546205 3.22455C0.0475584 3.24699 0.0411036 3.26965 0.0353818 3.29254C0.0330697 3.30178 0.0312141 3.31116 0.0291281 3.32048C0.025241 3.33782 0.0215676 3.3552 0.0184595 3.37275C0.0166291 3.3831 0.0150625 3.39349 0.0135043 3.4039C0.0109325 3.42109 0.00874179 3.43835 0.00692809 3.4557C0.00585579 3.46597 0.00480024 3.47623 0.00399601 3.48656C0.00252997 3.50528 0.00169223 3.52411 0.00112257 3.54298C0.000921511 3.5497 0.000188491 3.55631 0.000100529 3.56305C7.12078e-05 3.56534 0.000284831 3.56759 0.000268076 3.56989C0.000251321 3.57274 0 3.57556 0 3.57842V10.1133C0 10.564 0.257018 10.976 0.66389 11.1775L6.0049 13.8232V18.8952C6.0049 19.2325 6.1494 19.5539 6.40246 19.7796L10.2941 23.2495V25.8357C10.2941 26.2864 10.5511 26.6983 10.958 26.8999L16.9629 29.8744C16.9752 29.8805 16.9878 29.8859 17.0002 29.8915C17.0076 29.8949 17.0149 29.8985 17.0223 29.9017C17.0459 29.9118 17.0698 29.9213 17.0939 29.9299C17.0978 29.9313 17.1018 29.9324 17.1056 29.9337C17.1262 29.9408 17.1468 29.9474 17.1676 29.9533C17.1758 29.9557 17.1841 29.9576 17.1923 29.9598C17.2091 29.9642 17.2259 29.9684 17.2428 29.972C17.2519 29.974 17.2611 29.9758 17.2703 29.9776C17.2867 29.9808 17.3032 29.9836 17.3197 29.9861C17.3288 29.9874 17.3379 29.9888 17.3471 29.99C17.3647 29.9922 17.3823 29.9939 17.3999 29.9954C17.4078 29.996 17.4157 29.9969 17.4236 29.9974C17.449 29.999 17.4745 30 17.4999 30C17.5254 30 17.551 29.999 17.5764 29.9974C17.5843 29.9969 17.5922 29.996 17.6001 29.9954C17.6177 29.9939 17.6353 29.9922 17.6529 29.99C17.6621 29.9888 17.6712 29.9874 17.6804 29.986C17.6968 29.9836 17.7132 29.9808 17.7295 29.9776C17.7388 29.9758 17.7481 29.974 17.7573 29.972C17.7741 29.9684 17.7908 29.9642 17.8074 29.9599C17.8158 29.9577 17.8241 29.9557 17.8324 29.9533C17.8531 29.9474 17.8737 29.9408 17.8941 29.9338C17.8981 29.9324 17.9021 29.9313 17.9061 29.9299C17.9302 29.9213 17.9541 29.9118 17.9777 29.9017C17.9851 29.8985 17.9923 29.8949 17.9996 29.8916C18.0121 29.8859 18.0247 29.8805 18.0371 29.8744L24.042 26.8999C24.4489 26.6983 24.7059 26.2864 24.7059 25.8357V23.2495L28.5975 19.7796C28.8506 19.5539 28.9951 19.2325 28.9951 18.8952V13.8232L34.3361 11.1775C34.743 10.976 35 10.564 35 10.1133V3.57842C35 3.57556 34.9997 3.57274 34.9997 3.56989ZM12.0098 9.378L8.40686 11.1627V6.92951L12.0098 5.38818V9.378ZM7.20588 2.47194L10.088 3.61835L7.20588 4.85131L4.3238 3.61835L7.20588 2.47194ZM2.40196 5.38818L6.0049 6.92951V11.1627L2.40196 9.378V5.38818ZM17.5 18.1943L20.3821 19.3407L17.5 20.5737L14.6179 19.3407L17.5 18.1943ZM12.6961 21.1106L16.9629 22.6519L17 27L12.6961 25.1004V21.1106ZM22.3039 25.1004L18.701 26.8851V22.6519L22.3039 21.1106V25.1004ZM27.7941 2.47194L30.6762 3.61835L27.7941 4.85131L24.912 3.61835L27.7941 2.47194ZM22.9902 5.38818L27 6.92951V11.1775L22.9902 9.378V5.38818ZM32.598 9.378L28.9951 11.1627V6.92951L32.598 5.38818V9.378Z" fill="#A2B3FF"/>
</svg>
