<svg width="30" height="38" viewBox="0 0 30 38" fill="none" xmlns="http://www.w3.org/2000/svg">
<path d="M29.5994 5.26034C29.3439 5.02488 29.0021 4.90768 28.6567 4.93716C26.1743 5.14882 23.9793 4.9226 21.9459 4.24535C19.7116 3.50133 17.7267 2.23241 15.8781 0.366505C15.6389 0.12501 15.3109 -0.00781252 14.9722 0.000355706C14.6329 0.00781365 14.3119 0.154842 14.0837 0.406991C12.5914 2.05449 10.775 3.26978 8.68573 4.01841C6.55897 4.78054 4.07658 5.0888 1.30719 4.93432C0.967126 4.91514 0.634489 5.03766 0.387488 5.27241C0.140133 5.50716 0 5.83389 0 6.17553V16.9956C0.00035387 17.0059 0.00070789 17.0162 0.00070789 17.0268C0.00070789 20.8219 0.768251 24.2866 2.2814 27.3245C3.49694 29.7647 5.18985 31.9278 7.31342 33.7547C10.9176 36.8554 14.5087 37.9087 14.6598 37.9521C14.7709 37.984 14.8855 38 14.9998 38C15.1141 38 15.2288 37.984 15.3399 37.9521C15.491 37.9087 19.0821 36.8554 22.6866 33.755C24.8101 31.9285 26.5034 29.765 27.719 27.3248C29.2325 24.287 30 20.8222 30 17.0272V6.17553C30 5.8275 29.8546 5.4958 29.5994 5.26034ZM27.5229 17.0272C27.5229 20.4088 26.853 23.4804 25.5313 26.1564C24.4764 28.2922 23.0022 30.1919 21.1497 31.8021C18.5555 34.0569 15.9185 35.1219 14.9995 35.4483C14.078 35.1212 11.4424 34.0562 8.84957 31.8021C6.99706 30.1919 5.5232 28.2922 4.46831 26.1564C3.14696 23.4804 2.47709 20.4088 2.47709 17.0268V7.45865C7.62978 7.49879 11.8444 5.99619 15.0306 2.98424C16.8969 4.65305 18.9557 5.86905 21.1653 6.6049C23.1431 7.26368 25.2337 7.55632 27.5226 7.49133L27.5229 17.0272ZM23.7323 17.7613C24.3554 18.3867 24.3554 19.4041 23.7323 20.0296L21.4364 22.3337C21.1947 22.5763 20.8776 22.6977 20.5605 22.6977C20.2435 22.6977 19.9264 22.5763 19.6847 22.3337C19.201 21.8482 19.201 21.0612 19.6847 20.5758L21.3592 18.8952L19.6847 17.2147C19.201 16.7292 19.201 15.9422 19.6847 15.4568C20.1684 14.9713 20.9526 14.9713 21.4364 15.4568L23.7323 17.7613ZM10.2757 20.5758C10.7594 21.0612 10.7594 21.8482 10.2757 22.3337C10.034 22.5763 9.7169 22.6977 9.39984 22.6977C9.08277 22.6977 8.76606 22.5763 8.52401 22.3337L6.2281 20.0296C5.92625 19.7266 5.75994 19.3239 5.75994 18.8952C5.75994 18.4666 5.92625 18.0639 6.2281 17.7609L8.52401 15.4568C9.00775 14.9713 9.79192 14.9713 10.2757 15.4568C10.7594 15.9422 10.7594 16.7292 10.2757 17.2147L8.60115 18.8952L10.2757 20.5758ZM17.8768 16.004L14.3381 23.1068C14.1212 23.5422 13.6838 23.7944 13.2294 23.7944C13.0433 23.7944 12.8543 23.7521 12.6767 23.663C12.0648 23.3561 11.8168 22.6093 12.1229 21.9953L15.6616 14.8925C15.9673 14.2784 16.7115 14.0295 17.3233 14.3367C17.9352 14.6439 18.1829 15.39 17.8768 16.004Z" fill="#A2B3FF"/>
</svg>
