<svg width="37" height="36" viewBox="0 0 37 36" fill="none" xmlns="http://www.w3.org/2000/svg">
<path d="M35.2516 10.9932C34.345 8.84979 33.0473 6.92483 31.3946 5.27214C29.7419 3.61945 27.817 2.32179 25.6735 1.41517C23.4535 0.476276 21.0961 0 18.6667 0C16.2374 0 13.88 0.476276 11.66 1.41517C9.51654 2.32179 7.59158 3.61945 5.93889 5.27214C4.2862 6.92483 2.98854 8.84979 2.08192 10.9932C1.14302 13.2132 0.666748 15.5706 0.666748 18C0.666748 20.4294 1.14302 22.7868 2.08192 25.0068C2.98854 27.1502 4.2862 29.0752 5.93889 30.7279C7.59158 32.3806 9.51654 33.6782 11.66 34.5848C13.88 35.5237 16.2374 36 18.6667 36C21.0961 36 23.4535 35.5237 25.6735 34.5848C27.817 33.6782 29.7419 32.3806 31.3946 30.7279C33.0473 29.0752 34.345 27.1502 35.2516 25.0068C36.1905 22.7868 36.6667 20.4294 36.6667 18C36.6667 15.5706 36.1905 13.2132 35.2516 10.9932ZM29.3463 28.6796C26.4936 31.5323 22.7008 33.1034 18.6667 33.1034C14.6327 33.1034 10.8399 31.5323 7.98716 28.6796C5.13447 25.8269 3.5633 22.0341 3.5633 18C3.5633 13.9659 5.13447 10.1731 7.98716 7.32041C10.8399 4.46772 14.6327 2.89655 18.6667 2.89655C22.7008 2.89655 26.4936 4.46772 29.3463 7.32041C32.199 10.1731 33.7702 13.9659 33.7702 18C33.7702 22.0341 32.199 25.8269 29.3463 28.6796ZM23.5594 18.4535C24.2455 19.147 24.5885 20.0545 24.5885 21.1754C24.5885 22.0312 24.3746 22.7946 23.9467 23.4658C23.5189 24.1374 22.9288 24.6757 22.1765 25.0812C21.5426 25.423 20.8197 25.6676 20.0079 25.8157V27.0286C20.0079 27.7556 19.4182 28.3452 18.6912 28.3452C17.9641 28.3452 17.3745 27.7556 17.3745 27.0286V25.9039C16.52 25.8401 15.6974 25.6883 14.9074 25.4466C14.3993 25.2914 13.9313 25.1061 13.5026 24.8897C12.8753 24.5731 12.5869 23.8345 12.8319 23.1757L12.8716 23.069C13.1505 22.3192 14.0054 21.9637 14.7345 22.2927C15.049 22.4342 15.3796 22.56 15.7259 22.6697C16.5891 22.9428 17.485 23.0789 18.4143 23.0789C19.4467 23.0789 20.1808 22.9204 20.6161 22.603C21.051 22.2861 21.2691 21.8839 21.2691 21.3972C21.2691 20.9988 21.1143 20.6748 20.8044 20.4236C20.4945 20.1728 19.9561 19.9663 19.189 19.8041L16.755 19.2732C15.3978 18.9633 14.3906 18.451 13.7347 17.7352C13.0781 17.0197 12.7499 16.0866 12.7499 14.9359C12.7499 14.0508 12.9634 13.2617 13.3917 12.5681C13.8196 11.875 14.4208 11.3181 15.195 10.8977C15.8298 10.553 16.5564 10.315 17.3745 10.1839V8.97269C17.3745 8.24566 17.9641 7.656 18.6912 7.656C19.4182 7.656 20.0079 8.24566 20.0079 8.97269V10.1354C20.684 10.2112 21.344 10.3618 21.9883 10.5881C22.3768 10.7247 22.7327 10.8869 23.0567 11.0748C23.6381 11.4124 23.8925 12.1192 23.6587 12.7498C23.3782 13.507 22.5121 13.86 21.7793 13.5203C21.5803 13.428 21.373 13.3469 21.1582 13.2766C20.4353 13.0407 19.6607 12.9223 18.8347 12.9223C17.9347 12.9223 17.2379 13.0994 16.7439 13.4532C16.2494 13.8074 16.0027 14.2647 16.0027 14.825C16.0027 15.2234 16.1501 15.5516 16.4455 15.8098C16.7405 16.068 17.2565 16.2782 17.9943 16.4404L20.4283 16.9713C21.8294 17.2668 22.8734 17.7608 23.5594 18.4539V18.4535Z" fill="#A2B3FF"/>
</svg>
