<svg width="38" height="36" viewBox="0 0 38 36" fill="none" xmlns="http://www.w3.org/2000/svg">
<path d="M5.16675 10.5C5.16675 7.18629 7.85304 4.5 11.1667 4.5H26.1667C29.4805 4.5 32.1667 7.18629 32.1667 10.5V25.5C32.1667 28.8137 29.4805 31.5 26.1667 31.5H11.1667C7.85304 31.5 5.16675 28.8137 5.16675 25.5V10.5Z" stroke="#A2B3FF" stroke-width="2"/>
<path d="M11.6667 12L11.6667 24" stroke="#A2B3FF" stroke-width="2" stroke-linecap="round"/>
<path d="M15.6667 16.5L15.6667 24" stroke="#A2B3FF" stroke-width="2" stroke-linecap="round"/>
<path d="M19.6667 25C19.6667 21.6863 22.353 19 25.6667 19C28.9805 19 31.6667 21.6863 31.6667 25C31.6667 28.3137 28.9805 31 25.6667 31C22.353 31 19.6667 28.3137 19.6667 25Z" stroke="#A2B3FF" stroke-width="2"/>
<path d="M28.6667 20V16C28.6667 14.3431 27.3236 13 25.6667 13C24.0099 13 22.6667 14.3431 22.6667 16V20" stroke="#A2B3FF" stroke-width="2"/>
<path d="M25.6667 23.9996V25.9996" stroke="#A2B3FF" stroke-width="2" stroke-linecap="round"/>
</svg>
