<svg width="37" height="36" viewBox="0 0 37 36" fill="none" xmlns="http://www.w3.org/2000/svg">
<path d="M7.8335 9C7.8335 6.51472 9.84821 4.5 12.3335 4.5H20.0909C20.8865 4.5 21.6496 4.81607 22.2122 5.37868L27.9548 11.1213C28.5174 11.6839 28.8335 12.447 28.8335 13.2426V27C28.8335 29.4853 26.8188 31.5 24.3335 31.5H12.3335C9.84822 31.5 7.8335 29.4853 7.8335 27V9Z" stroke="#A2B3FF" stroke-width="2"/>
<path d="M19.8335 4V7C19.8335 10.3137 22.5198 13 25.8335 13H28.8335" stroke="#A2B3FF" stroke-width="2"/>
<path d="M16.2282 17.6052L12.8335 21L16.2282 24.3947" stroke="#A2B3FF" stroke-width="1.5" stroke-linecap="round" stroke-linejoin="round"/>
<path d="M20.2283 24.3947L23.623 21L20.2283 17.6052" stroke="#A2B3FF" stroke-width="1.5" stroke-linecap="round" stroke-linejoin="round"/>
</svg>
