<svg width="37" height="36" viewBox="0 0 37 36" fill="none" xmlns="http://www.w3.org/2000/svg">
<path fill-rule="evenodd" clip-rule="evenodd" d="M29.5836 3.375H25.0836C23.2226 3.375 21.7086 4.88903 21.7086 6.75V7.26487C20.6247 6.92341 19.4954 6.75 18.3336 6.75C17.9169 6.75 17.4968 6.77307 17.085 6.8186C16.4675 6.88685 16.0222 7.44282 16.0904 8.06038C16.1586 8.67795 16.7153 9.12316 17.3322 9.05498C17.6622 9.0185 17.9992 9 18.3336 9C19.5077 9 20.6398 9.22038 21.7086 9.65434V11.25C21.7086 13.111 23.2226 14.625 25.0836 14.625H29.5836C31.4446 14.625 32.9586 13.111 32.9586 11.25V6.75C32.9586 4.88903 31.4446 3.375 29.5836 3.375ZM30.7086 11.25C30.7086 11.8703 30.2039 12.375 29.5836 12.375H25.0836C24.4633 12.375 23.9586 11.8703 23.9586 11.25V8.94627C23.9587 8.94053 23.9586 8.9348 23.9586 8.92906V6.75C23.9586 6.12967 24.4633 5.625 25.0836 5.625H29.5836C30.2039 5.625 30.7086 6.12967 30.7086 6.75V11.25Z" fill="#A2B3FF"/>
<path fill-rule="evenodd" clip-rule="evenodd" d="M7.0835 14.625H7.59837C7.2569 15.7089 7.0835 16.8382 7.0835 18C7.0835 18.4167 7.10657 18.8368 7.1521 19.2486C7.21573 19.8242 7.70291 20.2501 8.26888 20.2501C8.31014 20.2501 8.35193 20.2478 8.39386 20.2432C9.01142 20.1749 9.45672 19.6189 9.38847 19.0014C9.352 18.6714 9.3335 18.3344 9.3335 18C9.3335 16.8259 9.55387 15.6938 9.98783 14.625H11.5835C13.4445 14.625 14.9585 13.111 14.9585 11.25V6.75C14.9585 4.88903 13.4445 3.375 11.5835 3.375H7.0835C5.2225 3.375 3.7085 4.88903 3.7085 6.75V11.25C3.7085 13.111 5.2225 14.625 7.0835 14.625ZM5.9585 6.75C5.9585 6.12967 6.46316 5.625 7.0835 5.625H11.5835C12.2038 5.625 12.7085 6.12967 12.7085 6.75V11.25C12.7085 11.8703 12.2038 12.375 11.5835 12.375H9.28075C9.27362 12.3749 9.2665 12.375 9.25937 12.375H7.0835C6.46316 12.375 5.9585 11.8703 5.9585 11.25V6.75Z" fill="#A2B3FF"/>
<path fill-rule="evenodd" clip-rule="evenodd" d="M29.5835 21.375H29.0686C29.4101 20.291 29.5835 19.1617 29.5835 18C29.5835 17.5833 29.5604 17.1632 29.5149 16.7514C29.4466 16.1338 28.8903 15.6886 28.2731 15.7568C27.6556 15.825 27.2103 16.381 27.2785 16.9985C27.315 17.3286 27.3335 17.6655 27.3335 18C27.3335 19.1741 27.1131 20.3062 26.6792 21.375H25.0835C23.2225 21.375 21.7085 22.889 21.7085 24.75V29.25C21.7085 31.111 23.2225 32.625 25.0835 32.625H29.5835C31.4445 32.625 32.9585 31.111 32.9585 29.25V24.75C32.9585 22.889 31.4445 21.375 29.5835 21.375ZM30.7085 29.25C30.7085 29.8703 30.2038 30.375 29.5835 30.375H25.0835C24.4632 30.375 23.9585 29.8703 23.9585 29.25V24.75C23.9585 24.1296 24.4632 23.625 25.0835 23.625H27.3958C27.3989 23.625 27.4021 23.6252 27.4052 23.6252C27.4077 23.6252 27.4103 23.625 27.4128 23.625H29.5835C30.2038 23.625 30.7085 24.1296 30.7085 24.75V29.25Z" fill="#A2B3FF"/>
<path fill-rule="evenodd" clip-rule="evenodd" d="M19.3349 26.945C19.0048 26.9815 18.6679 27 18.3335 27C17.1594 27 16.0273 26.7796 14.9585 26.3457V24.75C14.9585 22.889 13.4445 21.375 11.5835 21.375H7.0835C5.2225 21.375 3.7085 22.889 3.7085 24.75V29.25C3.7085 31.111 5.2225 32.625 7.0835 32.625H11.5835C13.4445 32.625 14.9585 31.111 14.9585 29.25V28.7351C16.0424 29.0766 17.1717 29.25 18.3335 29.25C18.7502 29.25 19.1703 29.2269 19.5821 29.1814C20.1996 29.1132 20.6449 28.5572 20.5767 27.9396C20.5084 27.322 19.9519 26.8766 19.3349 26.945ZM11.5835 30.375H7.0835C6.46316 30.375 5.9585 29.8703 5.9585 29.25V24.75C5.9585 24.1297 6.46316 23.625 7.0835 23.625H11.5835C12.2038 23.625 12.7085 24.1297 12.7085 24.75V27.0538C12.7084 27.0595 12.7085 27.0652 12.7085 27.0709V29.25C12.7085 29.8703 12.2038 30.375 11.5835 30.375Z" fill="#A2B3FF"/>
</svg>
