<svg width="36" height="36" viewBox="0 0 36 36" fill="none" xmlns="http://www.w3.org/2000/svg">
<path d="M30.4659 27.7988H22.9899L20.4979 30.3488H15.5139L13.0219 27.7988H5.5459" stroke="#A2B3FF" stroke-width="1.5" stroke-linecap="round" stroke-linejoin="round"/>
<path d="M7.24329 24.6963L5.00049 27.633V32.7477C5.00049 33.1998 5.27445 33.6335 5.76211 33.9532C6.24977 34.2729 6.91118 34.4526 7.60084 34.4526H28.4037C29.0933 34.4526 29.7547 34.2729 30.2424 33.9532C30.73 33.6335 31.004 33.1998 31.004 32.7477V27.633L28.7612 24.6963" stroke="#A2B3FF" stroke-width="1.5" stroke-linecap="round" stroke-linejoin="round"/>
<path d="M30.5286 13.7324C31.0053 13.7324 31.3918 13.3548 31.3918 12.8892C31.3918 12.4234 31.0053 12.0459 30.5286 12.0459H28.9253V8.914H30.5286C31.0053 8.914 31.3918 8.53644 31.3918 8.07078C31.3918 7.60505 31.0053 7.22757 30.5286 7.22757H28.9253V5.17976C28.9253 3.65209 27.6528 2.40919 26.0888 2.40919H23.9922V0.843216C23.9922 0.37752 23.6056 0 23.1289 0C22.6521 0 22.2656 0.37752 22.2656 0.843216V2.40919H19.0591V0.843216C19.0591 0.37752 18.6726 0 18.1958 0C17.7191 0 17.3325 0.37752 17.3325 0.843216V2.40919H14.126V0.843216C14.126 0.37752 13.7395 0 13.2627 0C12.786 0 12.3994 0.37752 12.3994 0.843216V2.40919H10.3028C8.7388 2.40919 7.46631 3.65209 7.46631 5.17976V7.22757H5.86305C5.38626 7.22757 4.99976 7.60505 4.99976 8.07078C4.99976 8.53644 5.38626 8.914 5.86305 8.914H7.46631V12.0459H5.86305C5.38626 12.0459 4.99976 12.4234 4.99976 12.8892C4.99976 13.3548 5.38626 13.7324 5.86305 13.7324H7.46631V16.8643H5.86305C5.38626 16.8643 4.99976 17.2418 4.99976 17.7075C4.99976 18.1732 5.38626 18.5508 5.86305 18.5508H7.46631V20.5986C7.46631 22.1262 8.7388 23.3691 10.3028 23.3691H12.3994V24.9351C12.3994 25.4008 12.786 25.7783 13.2627 25.7783C13.7395 25.7783 14.126 25.4008 14.126 24.9351V23.3691H17.3325V24.9351C17.3325 25.4008 17.7191 25.7783 18.1958 25.7783C18.6726 25.7783 19.0591 25.4008 19.0591 24.9351V23.3691H22.2656V24.9351C22.2656 25.4008 22.6521 25.7783 23.1289 25.7783C23.6056 25.7783 23.9922 25.4008 23.9922 24.9351V23.3691H26.0888C27.6528 23.3691 28.9253 22.1262 28.9253 20.5986V18.5508H30.5286C31.0053 18.5508 31.3918 18.1732 31.3918 17.7075C31.3918 17.2418 31.0053 16.8643 30.5286 16.8643H28.9253V13.7324H30.5286ZM27.1987 20.5986C27.1987 21.1962 26.7007 21.6827 26.0888 21.6827H10.3028C9.69089 21.6827 9.19289 21.1962 9.19289 20.5986V5.17976C9.19289 4.58204 9.69089 4.09562 10.3028 4.09562H26.0888C26.7007 4.09562 27.1987 4.58204 27.1987 5.17976V20.5986Z" fill="#A2B3FF"/>
<path d="M12.8985 18.2815H11.8438V15.342H12.8985V18.2815ZM17.7275 18.2815H16.6315L16.2598 17.4543H14.3795L14.0129 18.2815H12.9169L14.8718 14.2022H15.7601L17.7275 18.2815ZM19.8576 14.2022C20.3391 14.2022 20.7022 14.3181 20.9469 14.5494C21.1918 14.7769 21.3142 15.0873 21.3143 15.4806C21.3143 15.8702 21.1918 16.1811 20.9469 16.4126C20.7022 16.6439 20.3391 16.7598 19.8576 16.7598H18.9034V18.2815H17.8074V14.2022H19.8576ZM23.7288 14.2022C24.2106 14.2022 24.5741 14.318 24.8189 14.5494C25.0638 14.7769 25.1862 15.0873 25.1863 15.4806C25.1863 15.8702 25.0638 16.1811 24.8189 16.4126C24.5741 16.6439 24.2105 16.7598 23.7288 16.7598H22.7754V18.2815H21.6794V14.2022H23.7288ZM14.7336 16.6443H15.9212L15.3396 15.3016H15.31L14.7336 16.6443ZM18.9034 15.9383H19.7149C19.9006 15.9383 20.0387 15.8992 20.1295 15.8221C20.2203 15.7411 20.2663 15.6272 20.2663 15.4806C20.2662 15.3342 20.2202 15.2208 20.1295 15.1399C20.0387 15.0588 19.9006 15.0179 19.7149 15.0179H18.9034V15.9383ZM22.7754 15.9383H23.5869C23.7726 15.9383 23.9107 15.8992 24.0016 15.8221C24.0923 15.7411 24.1383 15.6272 24.1383 15.4806C24.1382 15.3343 24.0922 15.2208 24.0016 15.1399C23.9107 15.0588 23.7726 15.0179 23.5869 15.0179H22.7754V15.9383ZM12.928 14.9255H11.8201V14H12.928V14.9255Z" fill="#A2B3FF"/>
</svg>
